<mxfile host="app.diagrams.net" modified="2023-11-14T07:20:35.354Z" agent="Mozilla/5.0 (Windows NT 10.0; Win64; x64) AppleWebKit/537.36 (KHTML, like Gecko) Chrome/119.0.0.0 Safari/537.36" version="22.1.0" etag="TO_rgJRk5QITYZpaJYdZ" type="github">
  <diagram name="Page-1" id="dWQfnIR3mwob7hh5mpJR">
    <mxGraphModel>
      <root>
        <mxCell id="0" />
        <mxCell id="1" parent="0" />
      </root>
    </mxGraphModel>
  </diagram>
</mxfile>
